{
    "asset" : {
        "generator" : "Khronos glTF Blender I/O v1.0.5",
        "version" : "2.0"
    },
    "scene" : 0,
    "scenes" : [
        {
            "name" : "Scene",
            "nodes" : [
                0,
                1,
                2
            ]
        }
    ],
    "nodes" : [
        {
            "name" : "Light",
            "rotation" : [
                0.16907575726509094,
                0.7558803558349609,
                -0.27217137813568115,
                0.570947527885437
            ],
            "translation" : [
                4.076245307922363,
                5.903861999511719,
                -1.0054539442062378
            ]
        },
        {
            "name" : "Camera",
            "rotation" : [
                0.483536034822464,
                0.33687159419059753,
                -0.20870360732078552,
                0.7804827094078064
            ],
            "translation" : [
                7.358891487121582,
                4.958309173583984,
                6.925790786743164
            ]
        },
        {
            "mesh" : 0,
            "name" : "Cube",
            "translation" : [
                0,
                1,
                0
            ]
        }
    ],
    "materials" : [
        {
            "doubleSided" : true,
            "name" : "\u5dcc",
            "pbrMetallicRoughness" : {
                "baseColorFactor" : [
                    0.03666065260767937,
                    0.04517707601189613,
                    0.055821504443883896,
                    1
                ],
                "metallicFactor" : 0,
                "roughnessFactor" : 0.5
            }
        },
        {
            "doubleSided" : true,
            "name" : "Material",
            "pbrMetallicRoughness" : {
                "baseColorFactor" : [
                    0.3232347071170807,
                    0.3901589512825012,
                    0.20438648760318756,
                    1
                ],
                "metallicFactor" : 0,
                "roughnessFactor" : 0.5
            }
        }
    ],
    "meshes" : [
        {
            "name" : "Cube.001",
            "primitives" : [
                {
                    "attributes" : {
                        "POSITION" : 0,
                        "NORMAL" : 1,
                        "TEXCOORD_0" : 2
                    },
                    "indices" : 3,
                    "material" : 0
                },
                {
                    "attributes" : {
                        "POSITION" : 4,
                        "NORMAL" : 5,
                        "TEXCOORD_0" : 6
                    },
                    "indices" : 7,
                    "material" : 1
                }
            ]
        }
    ],
    "accessors" : [
        {
            "bufferView" : 0,
            "componentType" : 5126,
            "count" : 8896,
            "max" : [
                2.332258462905884,
                1.4150042533874512,
                1.6245429515838623
            ],
            "min" : [
                -1.608630895614624,
                -1.33159601688385,
                -1.6245429515838623
            ],
            "type" : "VEC3"
        },
        {
            "bufferView" : 1,
            "componentType" : 5126,
            "count" : 8896,
            "type" : "VEC3"
        },
        {
            "bufferView" : 2,
            "componentType" : 5126,
            "count" : 8896,
            "type" : "VEC2"
        },
        {
            "bufferView" : 3,
            "componentType" : 5123,
            "count" : 13344,
            "type" : "SCALAR"
        },
        {
            "bufferView" : 4,
            "componentType" : 5126,
            "count" : 18816,
            "max" : [
                2.6861765384674072,
                0.14354035258293152,
                1.8191243410110474
            ],
            "min" : [
                -1.608630895614624,
                -0.3874453902244568,
                -1.819124460220337
            ],
            "type" : "VEC3"
        },
        {
            "bufferView" : 5,
            "componentType" : 5126,
            "count" : 18816,
            "type" : "VEC3"
        },
        {
            "bufferView" : 6,
            "componentType" : 5126,
            "count" : 18816,
            "type" : "VEC2"
        },
        {
            "bufferView" : 7,
            "componentType" : 5123,
            "count" : 28224,
            "type" : "SCALAR"
        }
    ],
    "bufferViews" : [
        {
            "buffer" : 0,
            "byteLength" : 106752,
            "byteOffset" : 0
        },
        {
            "buffer" : 0,
            "byteLength" : 106752,
            "byteOffset" : 106752
        },
        {
            "buffer" : 0,
            "byteLength" : 71168,
            "byteOffset" : 213504
        },
        {
            "buffer" : 0,
            "byteLength" : 26688,
            "byteOffset" : 284672
        },
        {
            "buffer" : 0,
            "byteLength" : 225792,
            "byteOffset" : 311360
        },
        {
            "buffer" : 0,
            "byteLength" : 225792,
            "byteOffset" : 537152
        },
        {
            "buffer" : 0,
            "byteLength" : 150528,
            "byteOffset" : 762944
        },
        {
            "buffer" : 0,
            "byteLength" : 56448,
            "byteOffset" : 913472
        }
    ],
    "buffers" : [
        {
            "byteLength" : 969920,
            "uri" : "data:application/octet-stream;base64,"
        }
    ]
}
